<?xml version="1.0" encoding="UTF-8"?>
<svg version="1.1" viewBox="0 0 1024 1024" xmlns="http://www.w3.org/2000/svg">
 <g transform="matrix(3.9105 0 0 3.9105 1060.8 -412.97)">
  <path d="m-61.295 158.27q1.56 4.88 1.17 10-1.03 0.76-0.88-1.99a0.89 0.85 87.4 0 0-0.97-0.93l-4.86 0.71q-17.02-27.74-50.25-26.29-6.33 0.28-15.5 2.71 0.09-0.57-0.5-0.46-11.74 2.22-21.69 8.81-0.87 0.58-0.56 1.23-13.47 8.29-24.58 19.54-0.36 0.36-0.34-0.15 0.27-8.96 4.23-15.62 5.72-9.61 16.23-16.81 24.03-15.31 52.71-12.95 19.26 1.57 33.31 13.14 8.76 7.21 12.48 19.06z" fill="#2d343b"/>
  <path d="m-132.58 142.48q-11.97 3.36-22.75 9.58-0.31-0.65 0.56-1.23 9.95-6.59 21.69-8.81 0.59-0.11 0.5 0.46z" fill="#1b2026"/>
  <path d="m-123.83 147.56q-0.64 0.51-0.88 1.22a1.26 0.87 47.5 0 0 0.13 0.92q1.34 2.48 0.31 4.88-0.89 2.07 0.35 3.58a0.68 0.8 62.3 0 0 0.81 0.18q1.29-0.42 2.6-0.22a0.7 0.86 88.9 0 1 0.69 0.54q0.19 0.69-0.51 1.07-6.99 1-13.75 3.08-1.52 0.27-2.75-0.35a0.92 1 8.2 0 1-0.51-0.74q-0.91-6.01 0.51-11.91 6.31-2.15 13-2.25z" fill="#85236f"/>
  <path d="m-123.83 147.56q17.35-0.35 29.21 12.31 1.04 1.1-0.46 0.86-12.44-2.01-25.25-1 0.7-0.38 0.51-1.07a0.7 0.86 88.9 0 0-0.69-0.54q-1.31-0.2-2.6 0.22a0.68 0.8 62.3 0 1-0.81-0.18q-1.24-1.51-0.35-3.58 1.03-2.4-0.31-4.88a1.26 0.87 47.5 0 1-0.13-0.92q0.24-0.71 0.88-1.22z" fill="#aa2b77"/>
  <path d="m-136.83 149.81q-1.42 5.9-0.51 11.91a0.92 1 8.2 0 0 0.51 0.74q1.23 0.62 2.75 0.35l-4.75 1.92v-0.21a0.16 0.21 81.7 0 0-0.26-0.14q-4.45 0.98-5.32-3.6-0.49-2.62-0.85-5.26a1.13 1.03 64.1 0 1 0.26-0.88q0.62-0.68 1.39-1.19 0.03-0.02 1.28-0.48 0.83-0.31 0.75-1.41z" fill="#662268"/>
  <path d="m-141.58 151.56q0.08 1.1-0.75 1.41-1.25 0.46-1.28 0.48-0.77 0.51-1.39 1.19a1.13 1.03 64.1 0 0-0.26 0.88q0.36 2.64 0.85 5.26 0.87 4.58 5.32 3.6a0.16 0.21 81.7 0 1 0.26 0.14v0.21l-11.25 6.33q-5.25 0.18-6.25-4.79-0.49-2.42-2.25-3.29 7.22-7.61 17-11.42z" fill="#512358"/>
  <path d="m-158.58 162.98q1.76 0.87 2.25 3.29 1 4.97 6.25 4.79-10.29 7.12-15.88 15.8-1.92 3-1.89-0.56 0.15-14.43 9.27-23.32z" fill="#2d343b"/>
  <path d="m-132.79 180.02q-1.47 0.18-2.6-0.43-0.8-0.43-1.49-1.92-1.06-2.26-2.89-4.46-0.39-0.48-0.06-1.15 1.73-1.09 2.75-2.83 5.72-3.41 12.08-4.67 7.07-1.41 12.63 0.49 6.15 2.1 10.81 7.7 0.35 0.43-0.2 0.38-17.41-1.47-31.03 6.89z" fill="#bc2a8c"/>
  <path d="m-60.125 168.27q-0.06 5.07-1.86 9.71-0.58 1.49-0.8-0.09-0.91-6.5-4.05-11.83l4.86-0.71a0.89 0.85 87.4 0 1 0.97 0.93q-0.15 2.75 0.88 1.99z" fill="#512358"/>
  <path d="m-137.08 169.23q-1.02 1.74-2.75 2.83-2.77 2.06-6.25 5.46-1.09 1.07-0.98 2.33 0.16 1.8 0.16 1.87-0.13 4.28 3.82 6.34l-9.45 10.68q-0.64 0.73-0.8-0.2-2.1-12.39 6.32-21.45 4.36-4.7 9.93-7.86z" fill="#85236f"/>
  <path d="m-139.83 172.06q-0.33 0.67 0.06 1.15 1.83 2.2 2.89 4.46 0.69 1.49 1.49 1.92 1.13 0.61 2.6 0.43-5.55 3.5-10.29 8.04-3.95-2.06-3.82-6.34 0-0.07-0.16-1.87-0.11-1.26 0.98-2.33 3.48-3.4 6.25-5.46z" fill="#8d247e"/>
  <path d="m-105.58 185.81q-10.12-1.35-17.94 5.52-1.14 1-1.35 1.94l-1.96 2.54q-7.15 0.29-10.46-6.04 2.28-4.54 6.42-7.5-0.22 1.18-0.13 2.35 0.1 1.2 0.99 1.98 1.79 1.57 4.12 1.51 1.32-0.03 3.73-1.6 3.34-2.17 8.36-2.99a1.81 1.8 5.3 0 0 1.41-1.17q0.88-2.41-2.16-2.93-3.12-0.53-5.78-2.19 6.83-0.86 11.94 4.6 2.25 2.41 2.81 3.98z" fill="#85236f"/>
  <path d="m-120.33 177.23q2.66 1.66 5.78 2.19 3.04 0.52 2.16 2.93a1.81 1.8 5.3 0 1-1.41 1.17q-5.02 0.82-8.36 2.99-2.41 1.57-3.73 1.6-2.33 0.06-4.12-1.51-0.89-0.78-0.99-1.98-0.09-1.17 0.13-2.35 4.51-4.1 10.54-5.04z" fill="#aa2b77"/>
  <path d="m-137.29 189.77q3.31 6.33 10.46 6.04-4.86 7.03-11.5 13.06-0.83 0.75-0.63-0.35 0.39-2.19 0.02-3.77-0.11-0.47-0.05-0.97 0.26-1.89-1.55-2.26 0.05-6.32 3.25-11.75z" fill="#7a215b"/>
  <path d="m-124.87 193.27q0.5 0.56 0.73 1.27 5.12 15.28 18.37 21.92 9.67 4.84 19.69 5.56 7.58 0.54 15.99-0.45 7.9-0.93 8.02-0.94 5.66-0.57 11.31-1.27 10.55-1.29 21.12-1.09 1.14 0.02 0.14 0.55-13.51 7.18-27.62 12.99-7.89 3.26-14.82 4.99-7.61 1.9-15.38 3.02-6.48 0.93-13.01 0.41-12.07-1.19-21.69-6.77-9.8-5.69-15.27-16.44-3.38-7.38-3.25-15.5 1.81 0.37 1.55 2.26-0.06 0.5 0.05 0.97 0.37 1.58-0.02 3.77-0.2 1.1 0.63 0.35 6.64-6.03 11.5-13.06z" fill="#292f36"/>
  <path d="m-177.29 221.77q-0.77 0.41-1.61 0.37a0.9 0.76 76.6 0 1-0.7-0.51q-1.28-2.75-2.57-3.59-3.17-2.06-1.38 1.26 4.66 8.62 10.2 16.32 0.38 0.53 0.41 1.03 0.03 0.61-0.14 1.16-13.03-14.68-16.75-34.05-0.36-1.84 0.51-0.18 4.96 9.54 12.03 18.19z" fill="#1b2026"/>
  <path d="m-177.29 221.77q17.19 19.64 39.96 30.25 6.51 3.03 14.18 5.08 7.9 2.1 14.79 2.38 9.89 0.39 19.43-2.12 2.52-0.66 0.17 0.47-9.16 4.4-19.01 5.8-9.22 1.3-19.6-0.3-27.11-4.2-45.71-25.52 0.17-0.55 0.14-1.16-0.03-0.5-0.41-1.03-5.54-7.7-10.2-16.32-1.79-3.32 1.38-1.26 1.29 0.84 2.57 3.59a0.9 0.76 76.6 0 0 0.7 0.51q0.84 0.04 1.61-0.37z" fill="#252b34"/>
  <path d="m-69.585 243.23q-6.48 5.95-14.45 8.9-7.02 2.59-16.39 2.58-10.27-0.02-19.76-2.84-2.53-0.76 0.09-1.1 4.3-0.56 8.32-2.2 5.77-2.34 11.69-4.26 1.68-0.31 3.34-0.67 1.72-0.37 3.35-0.52 14.23-1.34 28.14-3.82 1.02-0.18 0.18 0.46z" fill="#252b34"/>
  <path d="m-227.12 252.52q-2.04 0.74-2.9-0.81-2.85-5.21-8.05-5.85-2.03-0.25-3.42 0.5-1.96 1.05-1.84 3.41 0.15 2.88 3.5 4.25 1.56 0.64 5.39 2.89 2.79 1.64 3.27 4.87 0.94 6.31-3.58 8.69-2.73 1.44-6.33 0.73-3.25-0.65-6.09-2.57-4.27-2.89-4.45-8.11-0.31-3.16 2.12-2.29 0.2 0.07 1.4 0.36 1.28 0.31 0.7 1.97a1.29 1.8 39.3 0 0-0.06 0.96q0.93 3.59 4.13 4.75 2.2 0.81 4.53 0.8 4.06-0.01 2.46-5.32-0.46-1.56-1.94-2.23-2.82-1.29-5.52-3.08-2.65-1.74-3.44-4.5-0.75-2.62 0.58-5.21 1.45-2.78 4.37-3.86 2.4-0.88 5.49-0.32 5 0.9 8.53 4.66 2.09 2.22 1.15 5.31z" fill="#13181e"/>
  <path d="m-204.37 269.02q-6.93 7.41-15.78 2.02a0.54 0.5 32.7 0 0-0.71 0.13q-1.84 2.66-2.62 5.48a1 1 0 0 1-1.06 0.73q-3.16-0.33-3.15-1.95 0-0.36 0.98-2.66 4.11-9.59 8.13-19.21 0.37-2.6 2.71-1.81 4.21 1.42 8.05 3.58 3.83 2.16 4.91 4.94 1.64 4.21-1.46 8.75zm-13.52-1.12q2.02 0.75 3.62 1.09 2.41 0.52 4.06-0.65 1.35-0.96 2.05-3.15 1.91-5.98-5.74-8.24a1.56 1.59 18.6 0 0-1.92 0.97l-2.99 7.94a1.57 1.59 20.5 0 0 0.92 2.04zm10.93 1.1068a1.02 2.63 22.1 0 0 1.9346-2.0531 1.02 2.63 22.1 0 0 0.0444-2.8205 1.02 2.63 22.1 0 0-1.9346 2.0531 1.02 2.63 22.1 0 0-0.0444 2.8205z" fill="#13181e"/>
  <g fill="#252527">
   <path d="m-192.83 264.98-8.99 21.9a0.51 0.56 22.1 0 1-0.67 0.32l-3.03-1.15a0.5 0.53 21.3 0 1-0.28-0.69l5.43-13.09 4.38-11.53a0.72 0.77 9.9 0 1 0.66-0.5q5.44-0.22 2.5 4.74z"/>
   <ellipse transform="rotate(112.1)" cx="324.48" cy="90.552" rx="2.63" ry="1.02"/>
   <path d="m-172.33 280.81q-7.87 3.99-9.77 12.79a0.97 1 17 0 1-1.32 0.73l-2.9-1.21a0.74 0.74 0 0 1-0.4-0.96l2.82-6.91q0.92-2.26 0.57-4.21l-1.79-10.27-1.27-5.71a0.38 0.36 85.1 0 1 0.37-0.46q3.14 0.15 5.5 2.15a1.23 1.33 15.2 0 1 0.44 0.84l1.37 11.78a0.49 0.5 70.9 0 0 0.75 0.36l11.76-7.15a1.39 1.52 35.3 0 1 0.92-0.2q1.83 0.25 3.31 1.34a0.34 0.35 47.5 0 1-0.03 0.57z"/>
   <path d="m-148.04 302.27 0.72 7.06a0.46 0.43 88.2 0 1-0.44 0.5q-2.09-0.06-3.55-1.28-1.17-0.96-1.48-3.13-0.29-2.02-0.5-4.04-0.05-0.42-0.26-0.66-0.24-0.26-0.57-0.45 0.44-1.65-0.27-3.19-0.88-0.58 0.06-1.02l-0.79-10.29q0.13-1.04 0.98-4.56 0.22-0.94-0.69-1.48 4.66-5.23 4.98 1.33 0.09 1.82 0.09 1.93 0.74 9.65 1.72 19.28z"/>
  </g>
  <path d="m-154.83 279.73q0.91 0.54 0.69 1.48-0.85 3.52-0.98 4.56l-7.59 6.9a0.32 0.33 34 0 0 0.1 0.55l8.28 2.84q-0.94 0.44-0.06 1.02 0.71 1.54 0.27 3.19-6.28-1.8-9.21-3.25-2.72-1.35-4.49 0.17-2.01 1.74-2.27 1.82-2.05 0.61-4.5-1.23a0.5 0.51 43.1 0 1-0.02-0.78l14.03-12.19z" fill="#13181e"/>
  <g fill="#252527">
   <path d="m-119.12 321.02q-2.53 0.15-4.48-1.1-1.55-1.01-2.27-3.6-2.9-10.53-4.71-21.3-0.22-1.28-0.69-0.19l-7.79 18.06a0.5 0.65 23.5 0 1-0.71 0.4l-3.19-1.35a0.94 1.13 24.1 0 1-0.4-1.44l3.78-8.19 7.59-15.79a0.72 0.71 16.1 0 1 0.73-0.39q2.39 0.27 4.05 1.76 1.28 1.14 1.83 3.71 2.21 10.41 4.03 20.79 0.24 1.37 0.76 0.1l7.64-18.44a0.65 0.72 14.3 0 1 0.68-0.45q1.82 0.16 3.83 1.49a0.62 0.62 0 0 1 0.21 0.79q-6.2 12.44-10.89 25.14z"/>
   <path d="m-91.085 302.23q1.06 0.95 1.25 3.29 1.15 14.11 1.73 28.24a0.52 0.49 88.3 0 1-0.48 0.54q-2.24 0.05-3.83-1.48a1.3 1.41 17.2 0 1-0.41-0.86l-0.52-5.52a0.9 1.03 5.9 0 0-0.59-0.84l-12.17-4.44a1.27 1.4 46.8 0 0-0.95 0.02q-1.69 0.66-2.71 2.22a0.89 1.04 17.8 0 1-0.76 0.47q-2.66 0.13-5.06-1.14 0.61-1.19 1.64-2.08 12.85-11.14 20.42-17.32 0.83-0.67 2.44-1.1zm-11.86 15.56q4.3 2.32 8.56 3.08a0.39 0.39 0 0 0 0.46-0.41l-0.7-9.4q-0.05-0.62-0.54-0.23l-7.85 6.18a0.47 0.47 0 0 0 0.07 0.78z"/>
   <path d="m-76.465 335.24q-2.31 4.8-6.49 1.36a0.44 0.46 43.1 0 1-0.01-0.68q10.23-9.76 21.49-18.31 4.21-3.2 4.41 2.34 0.51 13.44 1.02 26.88a0.45 0.47 0.5 0 1-0.48 0.49q-1.93-0.11-3.63-1.05a1.01 1.05 9.4 0 1-0.51-0.74l-0.79-5.32a0.84 0.98 5.2 0 0-0.52-0.73l-12.33-5.14a1.64 1.75 24.2 0 0-2.16 0.9zm5.29-4.02 8.81 4a0.38 0.36 11.8 0 0 0.53-0.33l-0.26-10.39q-0.03-1.12-0.89-0.4l-8.22 6.92a0.12 0.12 0 0 0 0.03 0.2z"/>
  </g>
 </g>
</svg>
