<?xml version="1.0" encoding="UTF-8"?>
<svg width="214pt" height="178pt" version="1.0" viewBox="0 0 214 178" xmlns="http://www.w3.org/2000/svg" xmlns:xlink="http://www.w3.org/1999/xlink">
 <defs>
  <linearGradient id="linearGradient5750">
   <stop stop-color="#c92a91" offset="0"/>
   <stop stop-color="#c92a91" stop-opacity="0" offset="1"/>
  </linearGradient>
  <linearGradient id="linearGradient6372" x1="129.97" x2="58.532" y1="58.103" y2="80.092" gradientUnits="userSpaceOnUse" xlink:href="#linearGradient5750"/>
  <mask id="mask103939" maskUnits="userSpaceOnUse">
   <path d="m89.191 117.79 10.309-20.593 14.358-10.723 9.6175-3.4166-1.5865-20.645-8.8841-16.878-26.762 4.0073-16.926 11.552-16.775 20.776-3.173 19.651 13.017 20.09z" fill="url(#linearGradient6372)"/>
   <path d="m89.191 117.79 10.309-20.593 14.358-10.723 9.6175-3.4166-1.5865-20.645-8.8841-16.878-26.762 4.0073-16.926 11.552-16.775 20.776-3.173 19.651 13.017 20.09z" fill="url(#radialGradient103949)"/>
  </mask>
  <radialGradient id="radialGradient103949" cx="99.5" cy="80.58" r="37.053" gradientTransform="matrix(.32548 -1.1884 .99013 .27117 -12.669 176.9)" gradientUnits="userSpaceOnUse" xlink:href="#linearGradient5750"/>
  <mask id="mask103939-2" maskUnits="userSpaceOnUse">
   <path d="m89.191 117.79 10.309-20.593 14.358-10.723 9.6175-3.4166-1.5865-20.645-8.8841-16.878-26.762 4.0073-16.926 11.552-16.775 20.776-3.173 19.651 13.017 20.09z" fill="url(#linearGradient6372)"/>
   <path d="m89.191 117.79 10.309-20.593 14.358-10.723 9.6175-3.4166-1.5865-20.645-8.8841-16.878-26.762 4.0073-16.926 11.552-16.775 20.776-3.173 19.651 13.017 20.09z" fill="url(#radialGradient103949)"/>
  </mask>
  <mask id="mask103939-7" maskUnits="userSpaceOnUse">
   <path d="m89.191 117.79 10.309-20.593 14.358-10.723 9.6175-3.4166-1.5865-20.645-8.8841-16.878-26.762 4.0073-16.926 11.552-16.775 20.776-3.173 19.651 13.017 20.09z" fill="url(#linearGradient6372)"/>
   <path d="m89.191 117.79 10.309-20.593 14.358-10.723 9.6175-3.4166-1.5865-20.645-8.8841-16.878-26.762 4.0073-16.926 11.552-16.775 20.776-3.173 19.651 13.017 20.09z" fill="url(#radialGradient103949)"/>
  </mask>
  <mask id="mask103939-73" maskUnits="userSpaceOnUse">
   <path d="m89.191 117.79 10.309-20.593 14.358-10.723 9.6175-3.4166-1.5865-20.645-8.8841-16.878-26.762 4.0073-16.926 11.552-16.775 20.776-3.173 19.651 13.017 20.09z" fill="url(#linearGradient6372)"/>
   <path d="m89.191 117.79 10.309-20.593 14.358-10.723 9.6175-3.4166-1.5865-20.645-8.8841-16.878-26.762 4.0073-16.926 11.552-16.775 20.776-3.173 19.651 13.017 20.09z" fill="url(#radialGradient103949)"/>
  </mask>
 </defs>
 <metadata>Created by potrace 1.16, written by Peter Selinger 2001-2019</metadata>
 <g>
  <path d="m95.1 27.6c-13.4 2.9-28.8 12.1-39.8 23.7-12.1 12.8-18.2 28.6-15.9 41.1 0.9 4.7 2 4.5 4.1-0.6 4-10.2 15.5-26 24.6-34.1 7.1-6.3 18.2-13.3 25.5-15.9 7.2-2.6 20.8-3.5 28.5-1.9 11 2.3 22.3 8.9 28.1 16.6l3 4-0.7-3.5c-2.9-15.6-13.9-26.4-30.3-29.9-7-1.5-19.1-1.2-27.1 0.5z"/>
  <path d="m167.5 121.6c-2.2 1.4-7.6 4.3-12 6.6-9.5 4.8-14.5 8.2-20.3 13.8-2.4 2.2-5.7 5-7.5 6.1l-3.2 2 4-0.6c20.6-3.3 33-11 40.8-25.3 1.6-2.9 2.7-5.2 2.5-5.2s-2.1 1.2-4.3 2.6z"/>
  <path d="m46 134c24 33.8 75.9 41.2 106 15.1l3.5-3.1-8.5 4c-11 5-16 6.1-29.5 6.5-23.7 0.7-50.6-7.8-68-21.3l-6-4.7z"/>
 </g>
 <g>
  <g>
   <path d="m92 52.7c-9.8 1.9-14.5 4.6-23.1 12.8-7.6 7.3-14 20.4-13.8 28.3 0.1 4.7 2.1 12.7 3.2 12.7 0.5 0 1.7-2.5 2.8-5.5 3.7-10.5 7-15.9 14.7-23.9 9.3-9.6 15-13.2 29-18.1 10.5-3.8 10.7-3.8 7.7-5-5.3-2.1-13.9-2.7-20.5-1.3z"/>
   <path d="m93.5 68.9c-6.2 2.8-13.8 10.3-17.5 17.3-2.8 5.2-3.4 7.4-3.4 12.8-0.1 6 1.7 13 3.3 13 0.4 0 1.5-2.7 2.5-5.9 4.2-14.1 14.9-27 27.4-33.2l7.3-3.7-3.2-1.1c-4.7-1.6-11.9-1.3-16.4 0.8z"/>
   <path d="m99.5 80.5c-4.4 2.4-5.9 4-9 9.8-10 18.2 5.9 41.1 30 43.3 13.3 1.2 25.7-2.7 42-13.4 6.4-4.2 36.1-32.9 35.1-34-0.7-0.6-12 4.7-27.8 13.1-21.3 11.3-23.9 12.2-37.8 12.2-10.3 0-12.1-0.3-17-2.6-3-1.4-7.7-4.6-10.5-7.1l-5-4.6 1.7-3.6c1.5-3.1 5.1-6.4 11.4-10.2 1.8-1.1 1.7-1.3-1.1-2.4-5.1-2-8.9-2.2-12-0.5z"/>
  </g>
  <g fill="#cb2e96">
   <g image-rendering="auto" mask="url(#mask103939)" style="mix-blend-mode:normal">
    <path d="m92 52.7c-9.8 1.9-14.5 4.6-23.1 12.8-7.6 7.3-14 20.4-13.8 28.3 0.1 4.7 2.1 12.7 3.2 12.7 0.5 0 1.7-2.5 2.8-5.5 3.7-10.5 7-15.9 14.7-23.9 9.3-9.6 15-13.2 29-18.1 10.5-3.8 10.7-3.8 7.7-5-5.3-2.1-13.9-2.7-20.5-1.3z"/>
    <path d="m93.5 68.9c-6.2 2.8-13.8 10.3-17.5 17.3-2.8 5.2-3.4 7.4-3.4 12.8-0.1 6 1.7 13 3.3 13 0.4 0 1.5-2.7 2.5-5.9 4.2-14.1 14.9-27 27.4-33.2l7.3-3.7-3.2-1.1c-4.7-1.6-11.9-1.3-16.4 0.8z"/>
    <path d="m99.5 80.5c-4.4 2.4-5.9 4-9 9.8-10 18.2 5.9 41.1 30 43.3 13.3 1.2 25.7-2.7 42-13.4 6.4-4.2 36.1-32.9 35.1-34-0.7-0.6-12 4.7-27.8 13.1-21.3 11.3-23.9 12.2-37.8 12.2-10.3 0-12.1-0.3-17-2.6-3-1.4-7.7-4.6-10.5-7.1l-5-4.6 1.7-3.6c1.5-3.1 5.1-6.4 11.4-10.2 1.8-1.1 1.7-1.3-1.1-2.4-5.1-2-8.9-2.2-12-0.5z"/>
   </g>
   <g>
    <g image-rendering="auto" mask="url(#mask103939-2)" style="mix-blend-mode:normal">
     <path d="m92 52.7c-9.8 1.9-14.5 4.6-23.1 12.8-7.6 7.3-14 20.4-13.8 28.3 0.1 4.7 2.1 12.7 3.2 12.7 0.5 0 1.7-2.5 2.8-5.5 3.7-10.5 7-15.9 14.7-23.9 9.3-9.6 15-13.2 29-18.1 10.5-3.8 10.7-3.8 7.7-5-5.3-2.1-13.9-2.7-20.5-1.3z"/>
     <path d="m93.5 68.9c-6.2 2.8-13.8 10.3-17.5 17.3-2.8 5.2-3.4 7.4-3.4 12.8-0.1 6 1.7 13 3.3 13 0.4 0 1.5-2.7 2.5-5.9 4.2-14.1 14.9-27 27.4-33.2l7.3-3.7-3.2-1.1c-4.7-1.6-11.9-1.3-16.4 0.8z"/>
     <path d="m99.5 80.5c-4.4 2.4-5.9 4-9 9.8-10 18.2 5.9 41.1 30 43.3 13.3 1.2 25.7-2.7 42-13.4 6.4-4.2 36.1-32.9 35.1-34-0.7-0.6-12 4.7-27.8 13.1-21.3 11.3-23.9 12.2-37.8 12.2-10.3 0-12.1-0.3-17-2.6-3-1.4-7.7-4.6-10.5-7.1l-5-4.6 1.7-3.6c1.5-3.1 5.1-6.4 11.4-10.2 1.8-1.1 1.7-1.3-1.1-2.4-5.1-2-8.9-2.2-12-0.5z"/>
    </g>
    <g>
     <g image-rendering="auto" mask="url(#mask103939-7)" style="mix-blend-mode:normal">
      <path d="m92 52.7c-9.8 1.9-14.5 4.6-23.1 12.8-7.6 7.3-14 20.4-13.8 28.3 0.1 4.7 2.1 12.7 3.2 12.7 0.5 0 1.7-2.5 2.8-5.5 3.7-10.5 7-15.9 14.7-23.9 9.3-9.6 15-13.2 29-18.1 10.5-3.8 10.7-3.8 7.7-5-5.3-2.1-13.9-2.7-20.5-1.3z"/>
      <path d="m93.5 68.9c-6.2 2.8-13.8 10.3-17.5 17.3-2.8 5.2-3.4 7.4-3.4 12.8-0.1 6 1.7 13 3.3 13 0.4 0 1.5-2.7 2.5-5.9 4.2-14.1 14.9-27 27.4-33.2l7.3-3.7-3.2-1.1c-4.7-1.6-11.9-1.3-16.4 0.8z"/>
      <path d="m99.5 80.5c-4.4 2.4-5.9 4-9 9.8-10 18.2 5.9 41.1 30 43.3 13.3 1.2 25.7-2.7 42-13.4 6.4-4.2 36.1-32.9 35.1-34-0.7-0.6-12 4.7-27.8 13.1-21.3 11.3-23.9 12.2-37.8 12.2-10.3 0-12.1-0.3-17-2.6-3-1.4-7.7-4.6-10.5-7.1l-5-4.6 1.7-3.6c1.5-3.1 5.1-6.4 11.4-10.2 1.8-1.1 1.7-1.3-1.1-2.4-5.1-2-8.9-2.2-12-0.5z"/>
     </g>
     <g image-rendering="auto" mask="url(#mask103939-73)" style="mix-blend-mode:normal">
      <path d="m92 52.7c-9.8 1.9-14.5 4.6-23.1 12.8-7.6 7.3-14 20.4-13.8 28.3 0.1 4.7 2.1 12.7 3.2 12.7 0.5 0 1.7-2.5 2.8-5.5 3.7-10.5 7-15.9 14.7-23.9 9.3-9.6 15-13.2 29-18.1 10.5-3.8 10.7-3.8 7.7-5-5.3-2.1-13.9-2.7-20.5-1.3z"/>
      <path d="m93.5 68.9c-6.2 2.8-13.8 10.3-17.5 17.3-2.8 5.2-3.4 7.4-3.4 12.8-0.1 6 1.7 13 3.3 13 0.4 0 1.5-2.7 2.5-5.9 4.2-14.1 14.9-27 27.4-33.2l7.3-3.7-3.2-1.1c-4.7-1.6-11.9-1.3-16.4 0.8z"/>
      <path d="m99.5 80.5c-4.4 2.4-5.9 4-9 9.8-10 18.2 5.9 41.1 30 43.3 13.3 1.2 25.7-2.7 42-13.4 6.4-4.2 36.1-32.9 35.1-34-0.7-0.6-12 4.7-27.8 13.1-21.3 11.3-23.9 12.2-37.8 12.2-10.3 0-12.1-0.3-17-2.6-3-1.4-7.7-4.6-10.5-7.1l-5-4.6 1.7-3.6c1.5-3.1 5.1-6.4 11.4-10.2 1.8-1.1 1.7-1.3-1.1-2.4-5.1-2-8.9-2.2-12-0.5z"/>
     </g>
    </g>
   </g>
  </g>
 </g>
</svg>
